<svg width="481" height="73" viewBox="0 0 481 73" fill="none" xmlns="http://www.w3.org/2000/svg">
<path d="M23.496 72.632C16.328 72.632 10.696 71.128 6.6 68.12C2.568 65.048 0.456 60.824 0.264 55.448H12.264C12.456 57.24 13.448 58.872 15.24 60.344C17.032 61.816 19.848 62.552 23.688 62.552C26.888 62.552 29.416 61.976 31.272 60.824C33.192 59.672 34.152 58.104 34.152 56.12C34.152 54.392 33.416 53.016 31.944 51.992C30.536 50.968 28.104 50.296 24.648 49.976L20.04 49.496C14.216 48.856 9.736 47.192 6.6 44.504C3.464 41.816 1.896 38.232 1.896 33.752C1.896 30.168 2.792 27.16 4.584 24.728C6.376 22.296 8.84 20.472 11.976 19.256C15.176 17.976 18.824 17.336 22.92 17.336C29.32 17.336 34.504 18.744 38.472 21.56C42.44 24.376 44.52 28.504 44.712 33.944H32.712C32.584 32.152 31.688 30.616 30.024 29.336C28.36 28.056 25.96 27.416 22.824 27.416C20.008 27.416 17.832 27.96 16.296 29.048C14.76 30.136 13.992 31.544 13.992 33.272C13.992 34.936 14.6 36.216 15.816 37.112C17.096 38.008 19.144 38.616 21.96 38.936L26.568 39.416C32.712 40.056 37.512 41.752 40.968 44.504C44.488 47.256 46.248 50.968 46.248 55.64C46.248 59.096 45.288 62.104 43.368 64.664C41.512 67.16 38.888 69.112 35.496 70.52C32.104 71.928 28.104 72.632 23.496 72.632ZM88.8555 71V55.544H86.6475V38.36C86.6475 35.352 85.9115 33.112 84.4395 31.64C82.9675 30.168 80.6955 29.432 77.6235 29.432C76.0235 29.432 74.1035 29.464 71.8635 29.528C69.6235 29.592 67.3515 29.688 65.0475 29.816C62.8075 29.88 60.7915 29.976 58.9995 30.104V18.776C60.4715 18.648 62.1355 18.52 63.9915 18.392C65.8475 18.264 67.7355 18.2 69.6555 18.2C71.6395 18.136 73.4955 18.104 75.2235 18.104C80.5995 18.104 85.0475 18.808 88.5675 20.216C92.1515 21.624 94.8395 23.832 96.6315 26.84C98.4875 29.848 99.4155 33.784 99.4155 38.648V71H88.8555ZM72.0555 72.344C68.2795 72.344 64.9515 71.672 62.0715 70.328C59.2555 68.984 57.0475 67.064 55.4475 64.568C53.9115 62.072 53.1435 59.064 53.1435 55.544C53.1435 51.704 54.0715 48.568 55.9275 46.136C57.8475 43.704 60.5035 41.88 63.8955 40.664C67.3515 39.448 71.3835 38.84 75.9915 38.84H88.0875V46.808H75.7995C72.7275 46.808 70.3595 47.576 68.6955 49.112C67.0955 50.584 66.2955 52.504 66.2955 54.872C66.2955 57.24 67.0955 59.16 68.6955 60.632C70.3595 62.104 72.7275 62.84 75.7995 62.84C77.6555 62.84 79.3515 62.52 80.8875 61.88C82.4875 61.176 83.7995 60.024 84.8235 58.424C85.9115 56.76 86.5195 54.52 86.6475 51.704L89.9115 55.448C89.5915 59.096 88.6955 62.168 87.2235 64.664C85.8155 67.16 83.8315 69.08 81.2715 70.424C78.7755 71.704 75.7035 72.344 72.0555 72.344ZM113.709 71V18.872H124.269V41.24H123.309C123.309 35.928 124.013 31.512 125.421 27.992C126.829 24.408 128.909 21.72 131.661 19.928C134.477 18.136 137.965 17.24 142.125 17.24H142.701C148.909 17.24 153.613 19.256 156.813 23.288C160.013 27.256 161.613 33.208 161.613 41.144V71H148.269V39.992C148.269 36.792 147.341 34.2 145.485 32.216C143.693 30.232 141.197 29.24 137.997 29.24C134.733 29.24 132.077 30.264 130.029 32.312C128.045 34.296 127.053 36.984 127.053 40.376V71H113.709ZM207.543 71V55.544H205.335V38.36C205.335 35.352 204.599 33.112 203.127 31.64C201.655 30.168 199.383 29.432 196.311 29.432C194.711 29.432 192.791 29.464 190.551 29.528C188.311 29.592 186.039 29.688 183.735 29.816C181.495 29.88 179.479 29.976 177.687 30.104V18.776C179.159 18.648 180.823 18.52 182.679 18.392C184.535 18.264 186.423 18.2 188.343 18.2C190.327 18.136 192.183 18.104 193.911 18.104C199.287 18.104 203.735 18.808 207.255 20.216C210.839 21.624 213.527 23.832 215.319 26.84C217.175 29.848 218.103 33.784 218.103 38.648V71H207.543ZM190.743 72.344C186.967 72.344 183.639 71.672 180.759 70.328C177.943 68.984 175.735 67.064 174.135 64.568C172.599 62.072 171.831 59.064 171.831 55.544C171.831 51.704 172.759 48.568 174.615 46.136C176.535 43.704 179.191 41.88 182.583 40.664C186.039 39.448 190.071 38.84 194.679 38.84H206.775V46.808H194.487C191.415 46.808 189.047 47.576 187.383 49.112C185.783 50.584 184.983 52.504 184.983 54.872C184.983 57.24 185.783 59.16 187.383 60.632C189.047 62.104 191.415 62.84 194.487 62.84C196.343 62.84 198.039 62.52 199.575 61.88C201.175 61.176 202.487 60.024 203.511 58.424C204.599 56.76 205.207 54.52 205.335 51.704L208.599 55.448C208.279 59.096 207.383 62.168 205.911 64.664C204.503 67.16 202.519 69.08 199.959 70.424C197.463 71.704 194.391 72.344 190.743 72.344ZM287.36 71V55.928H286.4V37.4C286.4 33.368 285.344 30.264 283.232 28.088C281.12 25.848 277.632 24.728 272.768 24.728C271.04 24.728 269.28 24.792 267.488 24.92C265.696 24.984 264 25.08 262.4 25.208C260.8 25.272 259.36 25.4 258.08 25.592V20.984C259.36 20.792 260.704 20.632 262.112 20.504C263.584 20.376 265.056 20.28 266.528 20.216C268 20.152 269.408 20.12 270.752 20.12C275.808 20.12 279.84 20.792 282.848 22.136C285.856 23.416 288.032 25.4 289.376 28.088C290.72 30.712 291.392 34.072 291.392 38.168V71H287.36ZM269.792 72.344C266.4 72.344 263.36 71.736 260.672 70.52C257.984 69.304 255.84 67.512 254.24 65.144C252.704 62.776 251.936 59.896 251.936 56.504C251.936 53.24 252.672 50.456 254.144 48.152C255.68 45.848 257.856 44.088 260.672 42.872C263.552 41.656 267.008 41.048 271.04 41.048H286.88V45.176H270.56C266.208 45.176 262.848 46.232 260.48 48.344C258.176 50.392 257.024 53.112 257.024 56.504C257.024 60.088 258.272 62.936 260.768 65.048C263.264 67.096 266.528 68.12 270.56 68.12C273.056 68.12 275.488 67.64 277.856 66.68C280.224 65.72 282.208 64.12 283.808 61.88C285.408 59.576 286.272 56.504 286.4 52.664L288.32 54.872C288.128 58.776 287.168 62.04 285.44 64.664C283.776 67.224 281.6 69.144 278.912 70.424C276.224 71.704 273.184 72.344 269.792 72.344ZM311.891 71V15.416C311.891 10.424 313.139 6.744 315.635 4.376C318.195 2.008 322.035 0.823999 327.155 0.823999H333.779V5.23999H326.003C323.059 5.23999 320.787 6.04 319.187 7.64C317.651 9.176 316.883 11.352 316.883 14.168V71H311.891ZM304.115 25.016V20.984H334.835V25.016H304.115ZM342.512 71V64.472L373.712 24.632L373.136 26.264L371.984 24.44L372.848 24.824H342.32V20.6H377.456V27.128L346.352 67.064L346.928 65.432L348.176 67.352L347.216 66.776H378.992V71H342.512ZM423.579 71V55.928H422.619V37.4C422.619 33.368 421.563 30.264 419.451 28.088C417.339 25.848 413.851 24.728 408.987 24.728C407.259 24.728 405.499 24.792 403.707 24.92C401.915 24.984 400.219 25.08 398.619 25.208C397.019 25.272 395.579 25.4 394.299 25.592V20.984C395.579 20.792 396.923 20.632 398.331 20.504C399.803 20.376 401.275 20.28 402.747 20.216C404.219 20.152 405.627 20.12 406.971 20.12C412.027 20.12 416.059 20.792 419.067 22.136C422.075 23.416 424.251 25.4 425.595 28.088C426.939 30.712 427.611 34.072 427.611 38.168V71H423.579ZM406.011 72.344C402.619 72.344 399.579 71.736 396.891 70.52C394.203 69.304 392.059 67.512 390.459 65.144C388.923 62.776 388.155 59.896 388.155 56.504C388.155 53.24 388.891 50.456 390.363 48.152C391.899 45.848 394.075 44.088 396.891 42.872C399.771 41.656 403.227 41.048 407.259 41.048H423.099V45.176H406.779C402.427 45.176 399.067 46.232 396.699 48.344C394.395 50.392 393.243 53.112 393.243 56.504C393.243 60.088 394.491 62.936 396.987 65.048C399.483 67.096 402.747 68.12 406.779 68.12C409.275 68.12 411.707 67.64 414.075 66.68C416.443 65.72 418.427 64.12 420.027 61.88C421.627 59.576 422.491 56.504 422.619 52.664L424.539 54.872C424.347 58.776 423.387 62.04 421.659 64.664C419.995 67.224 417.819 69.144 415.131 70.424C412.443 71.704 409.403 72.344 406.011 72.344ZM446.957 71V0.919998H452.045V71H446.957ZM439.373 5.23999V0.919998H452.045V5.23999H439.373Z" fill="white"/>
<path d="M468.914 71V59.288H480.05V71H468.914Z" fill="#D73939"/>
</svg>
